<?xml version="1.0" encoding="UTF-8"?> <svg xmlns="http://www.w3.org/2000/svg" width="691" height="212" viewBox="0 0 691 212" fill="none"> <path fill-rule="evenodd" clip-rule="evenodd" d="M103.003 155.28H286.687C301.791 155.28 314.033 167.522 314.033 182.623C314.033 197.726 301.791 209.968 286.687 209.968H103.003C87.9012 209.968 75.6592 197.726 75.6592 182.623C75.6592 167.522 87.9012 155.28 103.003 155.28Z" fill="#30AB68" stroke="white" stroke-width="2.95551" stroke-miterlimit="10" stroke-linecap="round" stroke-linejoin="round"></path> <path fill-rule="evenodd" clip-rule="evenodd" d="M64.9889 79.7717H248.673C263.775 79.7717 276.019 92.0155 276.019 107.117C276.019 122.219 263.775 134.462 248.673 134.462H64.9889C49.8874 134.462 37.6436 122.219 37.6436 107.117C37.6436 92.0155 49.8874 79.7717 64.9889 79.7717Z" fill="#30AB68" stroke="white" stroke-width="2.95551" stroke-miterlimit="10" stroke-linecap="round" stroke-linejoin="round"></path> <path fill-rule="evenodd" clip-rule="evenodd" d="M29.3453 2.01917H213.03C228.131 2.01917 240.373 14.2612 240.373 29.3645C240.373 44.466 228.131 56.7081 213.03 56.7081H29.3453C14.2421 56.7081 2 44.466 2 29.3645C2 14.2612 14.2421 2.01917 29.3453 2.01917Z" fill="#30AB68" stroke="white" stroke-width="2.95551" stroke-miterlimit="10" stroke-linecap="round" stroke-linejoin="round"></path> <path fill-rule="evenodd" clip-rule="evenodd" d="M327.819 15.4099L414.43 170.274C421.551 183.007 417.208 199.219 404.732 206.486C392.256 213.752 376.37 209.323 369.249 196.59L282.638 41.7258C275.517 28.9933 279.86 12.7809 292.336 5.51435C304.812 -1.7522 320.698 2.67741 327.819 15.4099Z" fill="#30AB68" stroke="white" stroke-width="2.95551" stroke-miterlimit="10" stroke-linecap="round" stroke-linejoin="round"></path> <path fill-rule="evenodd" clip-rule="evenodd" d="M553.263 141.775C553.263 128.675 563.777 118.053 576.749 118.053C589.719 118.053 600.233 128.675 600.233 141.775C600.233 154.877 589.719 165.496 576.749 165.496C563.777 165.496 553.263 154.877 553.263 141.775Z" fill="#30AB68" stroke="white" stroke-width="2.95551" stroke-miterlimit="10" stroke-linecap="round" stroke-linejoin="round"></path> <path fill-rule="evenodd" clip-rule="evenodd" d="M455.585 15.4099L368.975 170.274C361.854 183.007 366.196 199.219 378.672 206.486C391.148 213.752 407.034 209.323 414.155 196.59L500.766 41.7258C507.887 28.9933 503.546 12.7809 491.068 5.51435C478.592 -1.7522 462.706 2.67741 455.585 15.4099Z" fill="#30AB68" stroke="white" stroke-width="2.95551" stroke-miterlimit="10" stroke-linecap="round" stroke-linejoin="round"></path> <path fill-rule="evenodd" clip-rule="evenodd" d="M640.394 196.59L553.783 41.7258C546.662 28.9933 551.003 12.7809 563.481 5.51435C575.957 -1.7522 591.844 2.67741 598.965 15.4099L685.576 170.274C692.695 183.007 688.354 199.219 675.878 206.486C663.402 213.752 647.515 209.323 640.394 196.59Z" fill="#30AB68" stroke="white" stroke-width="2.95551" stroke-miterlimit="10" stroke-linecap="round" stroke-linejoin="round"></path> <path fill-rule="evenodd" clip-rule="evenodd" d="M512.898 196.59L599.507 41.7258C606.628 28.9933 602.287 12.7809 589.811 5.51435C577.335 -1.7522 561.448 2.67741 554.327 15.4099L467.716 170.274C460.595 183.007 464.936 199.219 477.412 206.486C489.89 213.752 505.777 209.323 512.898 196.59Z" fill="#30AB68" stroke="white" stroke-width="2.95551" stroke-miterlimit="10" stroke-linecap="round" stroke-linejoin="round"></path> </svg> 